<svg xmlns="http://www.w3.org/2000/svg" xmlns:xlink="http://www.w3.org/1999/xlink" viewBox="0 0 54 67.5" version="1.1" x="0px" y="0px"><title>1_left arrow</title><desc>Created with Sketch.</desc><g stroke="none" stroke-width="1" fill="none" fill-rule="evenodd"><path d="M27,53.8153846 C12.2307692,53.8153846 0.230769231,41.7692308 0.230769231,27 C0.230769231,12.2307692 12.1846154,0.230769231 27,0.230769231 C41.8153846,0.230769231 53.8153846,12.1846154 53.8153846,27 C53.8153846,41.8153846 41.7692308,53.8153846 27,53.8153846 Z M27,3.96923077 C14.3076923,3.96923077 3.96923077,14.3076923 3.96923077,27 C3.96923077,39.6923077 14.3076923,50.0307692 27,50.0307692 C39.6923077,50.0307692 50.0307692,39.6923077 50.0307692,27 C50.0307692,14.3076923 39.6923077,3.96923077 27,3.96923077 Z M29.5384615,40.3846154 L17.3538462,28.2 C16.9846154,27.8307692 16.8,27.3692308 16.8,26.8615385 C16.8,26.3538462 16.9846154,25.8923077 17.3538462,25.5230769 L29.5384615,13.3384615 C30.2769231,12.6 31.4769231,12.6 32.2153846,13.3384615 C32.9538462,14.0769231 32.9538462,15.2769231 32.2153846,16.0153846 L21.3692308,26.8615385 L32.2153846,37.7076923 C32.9538462,38.4461538 32.9538462,39.6461538 32.2153846,40.3846154 C31.8461538,40.7538462 31.3384615,40.9384615 30.8769231,40.9384615 C30.3692308,40.9384615 29.9076923,40.7538462 29.5384615,40.3846154 Z" fill="#000000" fill-rule="nonzero"/></g><text x="0" y="69" fill="#000000" font-size="5px" font-weight="bold" font-family="'Helvetica Neue', Helvetica, Arial-Unicode, Arial, Sans-serif">Created by Rooty</text><text x="0" y="74" fill="#000000" font-size="5px" font-weight="bold" font-family="'Helvetica Neue', Helvetica, Arial-Unicode, Arial, Sans-serif">from the Noun Project</text></svg>