<svg xmlns="http://www.w3.org/2000/svg" xmlns:xlink="http://www.w3.org/1999/xlink" viewBox="0 0 54 67.5" version="1.1" x="0px" y="0px"><title>1_right arrow</title><desc>Created with Sketch.</desc><g stroke="none" stroke-width="1" fill="none" fill-rule="evenodd"><path d="M27,53.8153846 C12.2307692,53.8153846 0.184615385,41.7692308 0.184615385,27 C0.184615385,12.2307692 12.2307692,0.184615385 27,0.184615385 C41.7692308,0.184615385 53.8153846,12.1846154 53.8153846,27 C53.8153846,41.8153846 41.7692308,53.8153846 27,53.8153846 Z M27,3.96923077 C14.3076923,3.96923077 3.96923077,14.3076923 3.96923077,27 C3.96923077,39.6923077 14.3076923,50.0307692 27,50.0307692 C39.6923077,50.0307692 50.0307692,39.6923077 50.0307692,27 C50.0307692,14.3076923 39.6923077,3.96923077 27,3.96923077 Z M20.8153846,40.3846154 C20.0769231,39.6461538 20.0769231,38.4461538 20.8153846,37.7076923 L31.6615385,26.8615385 L20.8153846,16.0153846 C20.0769231,15.2769231 20.0769231,14.0769231 20.8153846,13.3384615 C21.5538462,12.6 22.7538462,12.6 23.4923077,13.3384615 L35.6769231,25.5230769 C36.0461538,25.8923077 36.2307692,26.3538462 36.2307692,26.8615385 C36.2307692,27.3692308 36.0461538,27.8307692 35.6769231,28.2 L23.4923077,40.3846154 C23.1230769,40.7538462 22.6153846,40.9384615 22.1538462,40.9384615 C21.6461538,40.9384615 21.1846154,40.7538462 20.8153846,40.3846154 Z" fill="#000000" fill-rule="nonzero"/></g><text x="0" y="69" fill="#000000" font-size="5px" font-weight="bold" font-family="'Helvetica Neue', Helvetica, Arial-Unicode, Arial, Sans-serif">Created by Rooty</text><text x="0" y="74" fill="#000000" font-size="5px" font-weight="bold" font-family="'Helvetica Neue', Helvetica, Arial-Unicode, Arial, Sans-serif">from the Noun Project</text></svg>